<svg xmlns="http://www.w3.org/2000/svg" viewBox="0 0 860.5 676">
  <!-- Main organic blob path -->
  <path fill="#EDE8DC" d="
    M 627.667969 452.339844
    L 627.667969 43.972656
    C 627.667969 32.335938 623.046875 21.175781 614.816406 12.945312
    C 606.589844 4.71875 595.429688 0.0976562 583.792969 0.0976562
    L 209.175781 0.0976562
    C 184.945312 0.0976562 165.300781 19.738281 165.300781 43.972656
    L 165.300781 77.542969
    C 165.300781 101.777344 145.65625 121.421875 121.425781 121.421875
    L 44.113281 121.421875
    C 19.882812 121.421875 0.238281 141.0625 0.238281 165.296875
    L 0.238281 486.027344
    C 0.238281 510.261719 19.882812 529.90625 44.113281 529.90625
    L 561.453125 529.90625
    C 573.089844 529.90625 584.25 534.527344 592.476562 542.753906
    C 600.707031 550.984375 605.328125 562.144531 605.328125 573.78125
    L 605.328125 631.394531
    C 605.328125 643.027344 609.949219 654.1875 618.179688 662.417969
    C 626.40625 670.644531 637.566406 675.269531 649.203125 675.269531
    L 816.378906 675.269531
    C 828.015625 675.269531 839.175781 670.644531 847.40625 662.417969
    C 855.632812 654.1875 860.253906 643.027344 860.253906 631.394531
    L 860.253906 540.089844
    C 860.253906 528.453125 855.632812 517.292969 847.40625 509.066406
    C 839.175781 500.839844 828.015625 496.214844 816.378906 496.214844
    L 671.542969 496.214844
    C 647.3125 496.214844 627.667969 476.570312 627.667969 452.339844
    Z
  "/>
  <!-- Bump circle: fills the inner rounded corner of the bio section -->
  <!-- In blob local coords: cx=121.64, cy=528.14, r=96.59 -->
  <circle fill="#EDE8DC" cx="121.64" cy="528.14" r="96.59"/>
</svg>
